<?xml version="1.0" encoding="UTF-8"?>
<svg id="Capa_1" data-name="Capa 1" xmlns="http://www.w3.org/2000/svg" viewBox="0 0 398.93 379.21">
  <defs>
    <style>
      .cls-1, .cls-2 {
        fill: #234f31;
      }

      .cls-2 {
        font-size: 57.02px;
      }

      .cls-3 {
        font-family: Poppins-Bold, Poppins;
        font-weight: 700;
      }

      .cls-4 {
        font-family: Poppins-Regular, Poppins;
      }
    </style>
  </defs>
  <g>
    <path class="cls-1" d="M265.05,59.24c.94,1.25,1.78,3.19.85,4.61-1.59,2.45-4.07,6.91-6.46,9.9-2.77,3.46-6.2,6.19-10.31,8.2-.73.35-1.51.59-2.33.7-.95.12-1.43.19-1.44.19-5.09,1.04-8.92,3.8-11.51,8.3-2.46,4.28-2.76,9.65-1.11,14.13.33.91.48,1.58.43,2.01-.22,1.89-1.24,3.39-2.52,4.76-6.43,6.89-12.93,13.83-19.49,20.8-.55.58-1.33.93-2.33,1.04-1.86.21-3.47-1.27-3.73-3.03-.2-1.35-.29-2.97-.28-4.88.2-32.66.33-50.96.4-54.9.02-1.19.48-2.4,1.4-3.61.19-.25.94-.84,2.25-1.77,8.39-5.96,9.66-17.82,2.36-25.2-9.6-9.71-25.68-4.1-27.79,9.27-.49,3.12-.04,6.2,1.35,9.25,1.7,3.73,4.32,6.13,7.75,8.26.12.07.23.17.32.28.81,1.02,1.21,2.22,1.2,3.62-.03,6.14-.05,17.29-.07,33.45,0,.29-.05.82-.16,1.6-.59,4.27-5.2,5.21-8.2,2.54-4.84-4.32-11.42-10.38-19.77-18.2-.67-.62-1.08-1.32-1.22-2.08-.09-.44-.01-1.23.22-2.35,1.14-5.54-.09-10.38-3.69-14.54-3.37-3.89-7.78-5.79-13.23-5.71-2.59.04-5.12,1.73-7.15-.94-2.36-3.1-2.96-6.18-.89-9.63.53-.88,1.77-2.48,3.73-4.8,8.62-10.22,18.21-20.17,28.79-29.83,7.31-6.67,15-12.98,23.06-18.93,2.36-1.74,5.6-2.34,8.26-1.12,2.54,1.16,4,2.47,7.17,4.84,1.53,1.15,2.84,2.16,3.93,3.03,11.89,9.6,23.16,20,33.81,31.21,2.59,2.73,4.89,5.42,7.62,8.52,2.26,2.56,5.2,6.23,8.8,11h0Z"/>
    <path class="cls-1" d="M125.2,74.73c1.21-1.71,3.59-2.23,5.27-.95,1.97,1.51,2.68,2.94,2.07,5.59-1.02,4.42.17,9.16,2.63,12.71.77,1.11,1.93,2.29,3.45,3.53,4.4,3.56,10.3,4.3,15.65,2.55,1.11-.36,1.82-.52,2.11-.46.58.11,1.23.45,1.94,1.03.65.53,2.12,1.86,4.43,4,2.89,2.69,4.44,3.96,6.56,6.14,1.52,1.57,3.72,3.27,5.45,5.01,1.58,1.6,2.4,2.28,3.91,3.66.73.67,1.22,1.15,1.49,1.46,3.23,3.73,5.66,7.18,7.3,10.37,2.33,4.55,3.69,9.38,4.07,14.51.59,7.95.36,13.74.35,27.98,0,2.81-.29,5.54-.87,8.19-.64,2.91-2.75,5.58-6.01,4.61-.78-.23-1.95-1.06-3.52-2.49-2.95-2.69-5.86-5.41-8.75-8.17-3.67-3.51-7.44-7.11-11.32-10.83-1.68-1.61-1.63-2.82-1.35-5.24.31-2.69.09-5.12-.65-7.29-1.63-4.72-4.73-8.11-9.3-10.18-3.44-1.56-7.74-1.81-11.1-.67-.53.18-1.14.36-1.83.54-1.21.32-2.53-.49-3.49-1.3-1.82-1.53-7.47-6.25-16.97-14.17-1.4-1.16-2.97-2.53-4.72-4.09-2.17-1.94-3.92-4.76-3.79-7.69.05-1.02.23-2.14.56-3.35,3.43-12.71,8.92-24.37,16.46-34.99h0Z"/>
    <path class="cls-1" d="M262.57,90.62c.06-.61.27-1.16.62-1.65.72-1.01,3.27-4.48,7.64-10.41,1.25-1.68,2.77-3.02,4.95-2.05.61.27,1.2.85,1.76,1.74,1.17,1.84,1.8,2.82,1.87,2.94,2.88,4.58,5.62,9.96,8.22,16.13,4.15,9.85,6.82,20.05,8.02,30.61.54,4.79.98,9.99.78,15.02-.35,8.64-1.27,16.33-2.77,23.05-4.83,21.66-15.89,41.49-32.11,56.92-6.46,6.15-12.96,11.05-20.04,16.01-3.07,2.15-6.04,4.48-8.92,7-8.15,7.11-14.68,16.11-19.36,25.84-.74,1.53-1.83,3.51-3.73,3.74-1.8.23-2.98-.58-3.53-2.41-.4-1.32-.67-2.88-.84-4.69-.14-1.53-.26-4.38-.37-8.54-.07-2.91-.06-7.38.05-13.43.08-4.79.97-9.68,2.67-14.66,1.78-5.26,4.2-10.17,7.25-14.73,2.06-3.08,3.43-5.02,4.12-5.84,2.47-2.93,4.21-5.2,6.71-7.77,5.75-5.93,10.26-10.56,13.53-13.91,1.32-1.36,2.83-1.84,4.53-1.44,1.05.25,1.58.37,1.59.37,1.83.21,3.16.29,3.98.23,4.63-.3,8.47-2.14,11.52-5.55,3.23-3.62,4.86-8.59,4.1-13.42-.93-5.83-4.71-10.65-10.12-12.88-6.07-2.5-12.99-1.01-17.57,3.58-3.46,3.47-5.11,7.82-4.96,13.06.02.59.24,1.73.67,3.43.45,1.81.11,3.18-1.15,4.48-10.51,10.88-17.42,18.06-20.71,21.54-1.24,1.31-3.4,1.54-4.73.3-.76-.71-1.17-1.67-1.23-2.87-.41-8.05-.15-18.38-.21-23.49-.04-3.51.13-6.35.51-8.54,2.18-12.48,8.76-22.45,17.21-31.51,7.54-8.09,13.66-14.58,18.36-19.46,1.52-1.59,2.98-1.77,5.34-1.59,1.81.13,3.31.11,4.49-.08,4.77-.75,8.49-3.18,11.17-7.29,2.62-4.02,3.37-8.43,2.25-13.23-.31-1.31-1.13-2.87-1.46-3.83-.08-.23-.11-.48-.08-.72h0Z"/>
    <path class="cls-1" d="M150.76,170.79c1.49-.64,3.57.78,4.67,1.81,3.92,3.63,7.77,7.22,11.55,10.78,2.8,2.64,5.21,5.1,7.24,7.39,2.54,2.86,4.69,5.54,6.46,8.05,5.84,8.28,9.07,18.17,10.2,28.1.58,5.07.9,10.58.96,15.58.1,9.01-.16,18.15-.75,27.41-.1,1.54-.23,3.9-1.56,4.95-2.06,1.63-4.09.3-4.96-1.87-1.53-3.85-2.73-6.64-3.58-8.37-3.01-6.11-6.84-11.34-11.51-15.68-3.49-3.25-7.65-6.3-12.48-9.16-.04-.02-.88-.54-2.53-1.54-9.65-5.87-18.29-13.1-25.91-21.69-8.27-9.33-14.69-19.91-19.23-31.73-3.63-9.42-5.81-19.07-6.55-28.93-.44-5.81-.43-11.94.02-18.39.12-1.67.4-2.78.84-3.33,1.55-1.93,4.05-1.51,5.99-.07,6.64,4.91,12.4,9.52,17.29,13.84,1.24,1.1,1.14,2.47.81,4.25-.47,2.47-.52,4.61-.16,6.42.82,4.11,2.68,7.36,5.57,9.76,5.02,4.17,11.65,5.04,17.64,2.43h0Z"/>
  </g>
  <text class="cls-2" transform="translate(0 344.65)"><tspan class="cls-3" x="0" y="0">Fusa </tspan><tspan class="cls-4" x="151.4" y="0">Conecta</tspan></text>
</svg>